<svg width="112" height="105" viewBox="0 0 112 105" fill="none" xmlns="http://www.w3.org/2000/svg">
<ellipse cx="56" cy="52.5" rx="56" ry="52.5" fill="white"/>
<path d="M95.7025 58.3341C98.2919 60.9976 90.0008 64.7781 84.6976 64.7781C79.3944 64.7781 70.3481 60.4821 71.9665 58.3341C73.5848 56.1862 79.3944 51.8902 84.6976 51.8902C90.0008 51.8902 93.1131 55.6707 95.7025 58.3341Z" fill="#F2D7E0"/>
<ellipse cx="78.2241" cy="62.9738" rx="9.60229" ry="6.44392" fill="#F2D7E0"/>
<path d="M99.0471 62.9738C99.0471 66.5326 94.748 69.4177 89.4448 69.4177C68.7297 70.2769 79.8425 66.5326 79.8425 62.9738C79.8425 59.4149 84.1416 56.5298 89.4448 56.5298C94.748 56.5298 99.0471 59.4149 99.0471 62.9738Z" fill="#F2D7E0"/>
<ellipse cx="78.2241" cy="35.9952" rx="6.47346" ry="3.86635" fill="#F2D7E0"/>
<path d="M89.4447 38.315C89.4447 40.4503 86.5464 42.1814 82.9712 42.1814C79.396 42.1814 72.6137 39.4193 72.6137 37.284C72.6137 35.1487 79.396 34.4487 82.9712 34.4487C86.5464 34.4487 89.4447 36.1797 89.4447 38.315Z" fill="#F2D7E0"/>
<path d="M88.3658 35.9952C88.3658 38.1305 85.4675 39.8615 81.8923 39.8615C78.3171 39.8615 75.4189 38.1305 75.4189 35.9952C75.4189 33.8599 76.5909 32.1288 80.1661 32.1288C83.7413 32.1288 88.3658 33.8599 88.3658 35.9952Z" fill="#F2D7E0"/>
<ellipse cx="45.4253" cy="43.9857" rx="17.6941" ry="10.8258" fill="#F2D7E0"/>
<path d="M63.3352 49.1408C63.3352 55.1198 61.2714 59.9666 52.8697 59.9666C44.468 59.9666 37.6571 55.1198 37.6571 49.1408C37.6571 43.1619 44.468 38.3151 52.8697 38.3151C61.2714 38.3151 63.3352 43.1619 63.3352 49.1408Z" fill="#F2D7E0"/>
<path d="M58.8037 63.0597C58.8037 69.0386 39.1538 70.7924 30.7521 70.7924C22.3504 70.7924 27.7311 67.1484 27.7311 61.1695C27.7311 55.1906 34.5421 50.3437 42.9438 50.3437C51.3455 50.3437 58.8037 57.0808 58.8037 63.0597Z" fill="#F2D7E0"/>
<ellipse cx="30.2126" cy="59.9666" rx="15.2126" ry="10.8258" fill="#F2D7E0"/>
<path d="M61.3977 61.0132C58.3154 66.7758 46.9507 68.4399 36.014 64.7301C25.0774 61.0203 15.3702 59.0276 18.4525 53.2649C29.0225 33.5036 36.2395 40.152 47.1762 43.8618C58.1129 47.5716 64.4801 55.2506 61.3977 61.0132Z" fill="#F2D7E0"/>
<g filter="url(#filter0_d)">
<path d="M59.1288 92C64.9425 91.828 64.4042 72.2152 63.22 66.0218C62.0357 59.8283 58.4828 40.0435 56.7602 40.0435C55.0377 40.0435 63.7901 70.8389 63.7901 70.8389M63.7901 70.8389C70.4626 72.7645 73.8785 74.7098 80.5535 74.7098C87.2285 74.7098 98.3087 72.5205 98.9636 67.054C100.085 58.6443 102.028 54.4104 93.7959 50.1939C87.8524 48.2125 73.1847 53.8068 71.5099 55.0971C69.8352 56.3874 68.0647 61.2978 70.218 62.4089C72.3712 63.52 75.7605 52.6701 81.5225 47.7854C85.7108 44.2346 90.6795 43.8224 93.7959 40.0435C94.9782 38.6099 93.7959 35.2263 93.7959 35.2263C93.7959 35.2263 92.5801 29.0192 89.7047 27.8286C87.2784 26.8238 82.8144 27.8286 82.8144 27.8286L76.7853 37.2908C76.7853 37.2908 72.6942 46.409 65.5885 42.28C62.0286 40.2114 68.2899 36.8532 71.4023 34.3661C75.5062 31.0866 77.6298 31.115 78.1849 27.8286C78.7963 24.2096 75.9127 22.1634 72.6942 19.5706C70.7392 17.9956 66.8805 16.3018 66.8805 16.3018C66.8805 16.3018 58.2368 11.7554 56.7602 15.4416C55.3817 18.883 59.2275 22.1067 60.4207 25.592C61.428 28.5341 62.6059 32.0749 59.1288 33.3339C56.748 34.196 54.1764 31.0974 54.1764 31.0974L52.5614 23.5275C52.5614 23.5275 50.0445 18.3626 47.286 16.3018C44.0307 13.8698 39.0265 13.5792 35.2279 15.4416C31.0212 17.5041 32.5233 21.8621 30.9214 25.592C30.2783 27.0895 29.6637 27.8924 29.4142 29.463C28.1481 37.4323 48.7366 33.3413 50.5159 41.2478C50.9623 43.2316 51.9439 44.7475 50.5159 46.409C48.8068 48.3975 46.8554 42.7962 43.8408 41.2478C36.4404 37.4467 30.1124 30.9089 23.1698 35.2263C18.9494 37.8509 20.4471 43.5217 20.8012 47.7854C21.7032 58.6459 46.3916 49.608 52.5614 59.3121C53.3041 60.4802 52.1096 56.3323 52.5614 57.5917C56.1773 67.6697 20.6061 52.5165 19.1863 54.495C12.9525 63.1818 35.1067 75.0155 47.286 77.3765C58.3703 79.5252 63.7901 70.8389 63.7901 70.8389Z" stroke="black" stroke-width="4"/>
</g>
<defs>
<filter id="filter0_d" x="12.1022" y="12.0001" width="93.8977" height="89.999" filterUnits="userSpaceOnUse" color-interpolation-filters="sRGB">
<feFlood flood-opacity="0" result="BackgroundImageFix"/>
<feColorMatrix in="SourceAlpha" type="matrix" values="0 0 0 0 0 0 0 0 0 0 0 0 0 0 0 0 0 0 127 0"/>
<feOffset dy="4"/>
<feGaussianBlur stdDeviation="2"/>
<feColorMatrix type="matrix" values="0 0 0 0 0 0 0 0 0 0 0 0 0 0 0 0 0 0 0.25 0"/>
<feBlend mode="normal" in2="BackgroundImageFix" result="effect1_dropShadow"/>
<feBlend mode="normal" in="SourceGraphic" in2="effect1_dropShadow" result="shape"/>
</filter>
</defs>
</svg>
